<svg id="instagram" xmlns="http://www.w3.org/2000/svg" width="100.034" height="100.034" viewBox="0 0 100.034 100.034">
  <path id="Trazado_26" data-name="Trazado 26" d="M146.683,91H99.792A8.8,8.8,0,0,0,91,99.792v46.891a8.8,8.8,0,0,0,8.792,8.792h46.891a8.8,8.8,0,0,0,8.792-8.792V99.792A8.8,8.8,0,0,0,146.683,91Zm-23.445,52.752a20.515,20.515,0,1,1,20.515-20.515,20.515,20.515,0,0,1-20.515,20.515Zm20.515-35.168a5.861,5.861,0,1,1,5.861-5.861,5.861,5.861,0,0,1-5.861,5.861Zm0,0" transform="translate(-73.221 -73.221)" fill="#fff"/>
  <path id="Trazado_27" data-name="Trazado 27" d="M195.653,181a14.653,14.653,0,1,0,14.653,14.653A14.653,14.653,0,0,0,195.653,181Zm0,0" transform="translate(-145.636 -145.636)" fill="#fff"/>
  <path id="Trazado_28" data-name="Trazado 28" d="M85.185,0H14.849A15.007,15.007,0,0,0,0,14.849V85.185a15.007,15.007,0,0,0,14.849,14.849H85.185a15.007,15.007,0,0,0,14.849-14.849V14.849A15.007,15.007,0,0,0,85.185,0Zm2.931,73.462A14.671,14.671,0,0,1,73.462,88.116H26.571A14.671,14.671,0,0,1,11.918,73.462V26.571A14.671,14.671,0,0,1,26.571,11.918H73.462A14.671,14.671,0,0,1,88.116,26.571Zm0,0" fill="#fff"/>
</svg>
