<svg xmlns="http://www.w3.org/2000/svg" width="66.972" height="66.948" viewBox="0 0 66.972 66.948">
  <g id="project" transform="translate(0.004 -0.005)">
    <path id="Trazado_1" data-name="Trazado 1" d="M73.359,287.827a1.955,1.955,0,0,0,.366,2.268l.48.48c1.4-1.642,3-3.424,4.961-5.382.14-.14.279-.207.419-.332l-3.072-3.086C74.7,285.017,73.658,287.234,73.359,287.827Zm0,0" transform="translate(-63.573 -244.927)" fill="#fff"/>
    <path id="Trazado_2" data-name="Trazado 2" d="M168.265,389.982c-1.955,1.955-3.743,3.581-5.374,4.969l.651.651a1.955,1.955,0,0,0,2.285.357c1.017-.522,2.614-1.276,6.005-3.165l-3.232-3.232C168.472,389.7,168.4,389.842,168.265,389.982Zm0,0" transform="translate(-141.578 -338.623)" fill="#fff"/>
    <path id="Trazado_3" data-name="Trazado 3" d="M77.431,311.907c-1.419-1.419-5.4-.145-7.276,1.726A52.174,52.174,0,0,0,59.79,326.962a1.955,1.955,0,0,0,2.623,2.62,52.548,52.548,0,0,0,13.292-10.4c2.058-2.061,3.072-5.927,1.729-7.262Zm0,0" transform="translate(-51.789 -270.598)" fill="#fff"/>
    <path id="Trazado_4" data-name="Trazado 4" d="M6.133,168.482.586,174.029a1.955,1.955,0,0,0,1.894,3.282,16.122,16.122,0,0,1,7.413-.687,105.267,105.267,0,0,1,8.119-12.387C16.35,163.17,10.85,163.762,6.133,168.482Zm0,0" transform="translate(0 -142.369)" fill="#fff"/>
    <path id="Trazado_5" data-name="Trazado 5" d="M246.721,394a1.955,1.955,0,0,0,2.268-.363l5.55-5.547c4.3-4.3,5.053-9.84,4.078-11.6a111.952,111.952,0,0,1-12.4,8.058,24.037,24.037,0,0,1-.559,7.413A1.955,1.955,0,0,0,246.721,394Zm0,0" transform="translate(-213.509 -327.259)" fill="#fff"/>
    <path id="Trazado_6" data-name="Trazado 6" d="M286.366,139.03a5.885,5.885,0,1,0,8.323,0A5.885,5.885,0,0,0,286.366,139.03Zm0,0" transform="translate(-247.412 -119.356)" fill="#fff"/>
    <path id="Trazado_7" data-name="Trazado 7" d="M403.906,1.908A1.955,1.955,0,0,0,402.093.1a38.779,38.779,0,0,0-14.32,1.676,16.48,16.48,0,0,0,4.88,9.583,16.418,16.418,0,0,0,9.776,4.871,40.568,40.568,0,0,0,1.478-14.323Zm0,0" transform="translate(-337.054 0)" fill="#fff"/>
    <path id="Trazado_8" data-name="Trazado 8" d="M152.214,34.98A20.607,20.607,0,0,1,146.307,24c-11.778,4.832-23.057,15.381-31.967,30.2l4.427,4.427a8.262,8.262,0,0,1,9.024.776,8.254,8.254,0,0,1,.774,9.024L133.137,73c11.4-6.871,24.68-17.7,30.324-32.1a20.509,20.509,0,0,1-11.248-5.919Zm-2.793,16.644a9.809,9.809,0,1,1,0-13.87,9.809,9.809,0,0,1,0,13.87Zm0,0" transform="translate(-99.378 -20.855)" fill="#fff"/>
  </g>
</svg>
