<svg id="home" xmlns="http://www.w3.org/2000/svg" width="86.275" height="86.275" viewBox="0 0 86.275 86.275">
  <path id="Trazado_9" data-name="Trazado 9" d="M0,0H86.275V86.275H0Z" fill="none"/>
  <path id="Trazado_10" data-name="Trazado 10" d="M28.666,59.621V41.647H43.045V59.621a3.6,3.6,0,0,0,3.595,3.595H57.425a3.6,3.6,0,0,0,3.595-3.595V34.458h6.111a1.8,1.8,0,0,0,1.186-3.127L38.264,4.261a3.624,3.624,0,0,0-4.817,0L3.395,31.33a1.8,1.8,0,0,0,1.186,3.127h6.111V59.621a3.6,3.6,0,0,0,3.595,3.595H25.071A3.6,3.6,0,0,0,28.666,59.621Z" transform="translate(7.282 8.68)" fill="#fff"/>
</svg>
