<svg id="work" xmlns="http://www.w3.org/2000/svg" width="66.971" height="66.971" viewBox="0 0 66.971 66.971">
  <path id="Trazado_13" data-name="Trazado 13" d="M0,0H66.971V66.971H0Z" fill="none"/>
  <path id="Trazado_14" data-name="Trazado 14" d="M52.228,13.162H41.066V7.581A5.561,5.561,0,0,0,35.485,2H24.324a5.561,5.561,0,0,0-5.581,5.581v5.581H7.581a5.539,5.539,0,0,0-5.553,5.581L2,49.438a5.561,5.561,0,0,0,5.581,5.581H52.228a5.561,5.561,0,0,0,5.581-5.581V18.743a5.561,5.561,0,0,0-5.581-5.581Zm-16.743,0H24.324V7.581H35.485Z" transform="translate(3.581 3.581)" fill="#fff"/>
</svg>
