<svg id="school" xmlns="http://www.w3.org/2000/svg" width="66.971" height="66.971" viewBox="0 0 66.971 66.971">
  <path id="Trazado_11" data-name="Trazado 11" d="M0,0H66.971V66.971H0Z" fill="none"/>
  <path id="Trazado_12" data-name="Trazado 12" d="M10.206,30.905v7.841a5.612,5.612,0,0,0,2.9,4.911L27.06,51.276a5.542,5.542,0,0,0,5.358,0L46.37,43.658a5.612,5.612,0,0,0,2.9-4.911V30.905L32.418,40.114a5.542,5.542,0,0,1-5.358,0ZM27.06,3.95,3.536,16.786a2.81,2.81,0,0,0,0,4.911L27.06,34.533a5.542,5.542,0,0,0,5.358,0l22.435-12.25V38.774a2.79,2.79,0,0,0,5.581,0V20.888a2.807,2.807,0,0,0-1.451-2.456L32.418,3.95a5.693,5.693,0,0,0-5.358,0Z" transform="translate(3.747 5.873)" fill="#fff"/>
</svg>
