<svg id="baseline-archive-24px" xmlns="http://www.w3.org/2000/svg" width="100.101" height="100.101" viewBox="0 0 100.101 100.101">
  <path id="Trazado_23" data-name="Trazado 23" d="M76.157,12.3l-5.8-7.007A6.054,6.054,0,0,0,65.563,3H15.513a6.2,6.2,0,0,0-4.838,2.294L4.919,12.3A8.166,8.166,0,0,0,3,17.6V69.734a8.366,8.366,0,0,0,8.342,8.342H69.734a8.366,8.366,0,0,0,8.342-8.342V17.6A8.166,8.166,0,0,0,76.157,12.3ZM40.538,63.478,17.6,40.538H32.2V32.2H48.88v8.342h14.6Zm-28.7-52.136,3.378-4.171h50.05l3.921,4.171Z" transform="translate(9.513 9.513)"/>
  <path id="Trazado_24" data-name="Trazado 24" d="M0,0H100.1V100.1H0Z" fill="none"/>
</svg>
