<svg id="baseline-laptop_mac-24px" xmlns="http://www.w3.org/2000/svg" width="100.101" height="100.101" viewBox="0 0 100.101 100.101">
  <path id="Trazado_13" data-name="Trazado 13" d="M0,0H100.1V100.1H0Z" fill="none"/>
  <path id="Trazado_14" data-name="Trazado 14" d="M83.417,65.563a8.331,8.331,0,0,0,8.3-8.342l.042-45.88A8.366,8.366,0,0,0,83.417,3H16.683a8.366,8.366,0,0,0-8.342,8.342v45.88a8.366,8.366,0,0,0,8.342,8.342H0A8.366,8.366,0,0,0,8.342,73.9H91.759a8.366,8.366,0,0,0,8.342-8.342ZM16.683,11.342H83.417v45.88H16.683ZM50.05,69.734a4.171,4.171,0,1,1,4.171-4.171A4.183,4.183,0,0,1,50.05,69.734Z" transform="translate(0 9.513)"/>
</svg>
