<svg xmlns="http://www.w3.org/2000/svg" width="99.9" height="99.9" viewBox="0 0 99.9 99.9">
  <path id="linkedin" d="M92.7,0H7.2A7.2,7.2,0,0,0,0,7.2V92.7a7.2,7.2,0,0,0,7.2,7.2H92.7a7.2,7.2,0,0,0,7.2-7.2V7.2A7.2,7.2,0,0,0,92.7,0ZM35.435,75.511H23.27v-36.6H35.435Zm-6.082-41.6h-.079c-4.082,0-6.722-2.81-6.722-6.322,0-3.591,2.721-6.324,6.882-6.324s6.722,2.732,6.8,6.324C36.236,31.1,33.6,33.914,29.353,33.914ZM79.3,75.511H67.137V55.931c0-4.921-1.761-8.277-6.163-8.277A6.659,6.659,0,0,0,54.732,52.1a8.331,8.331,0,0,0-.4,2.969V75.511H42.168s.159-33.165,0-36.6H54.332v5.182A12.077,12.077,0,0,1,65.3,38.053c8,0,14.005,5.231,14.005,16.472Zm0,0"/>
</svg>
