<svg id="baseline-mobile_friendly-24px" xmlns="http://www.w3.org/2000/svg" width="99.932" height="99.932" viewBox="0 0 99.932 99.932">
  <path id="Trazado_9" data-name="Trazado 9" d="M69.02,1H27.382a8.352,8.352,0,0,0-8.328,8.328V21.819h8.328V13.492H69.02V80.113H27.382V71.785H19.054V84.277A8.352,8.352,0,0,0,27.382,92.6H69.02a8.352,8.352,0,0,0,8.328-8.328V9.328A8.352,8.352,0,0,0,69.02,1ZM19.1,52.923,8.478,42.305,3.19,47.593,19.054,63.458,48.992,33.52,43.7,28.232Z" transform="translate(10.093 3.164)"/>
  <path id="Trazado_10" data-name="Trazado 10" d="M0,0H99.932V99.932H0Z" fill="none"/>
</svg>
