<svg id="baseline-attach_money-24px" xmlns="http://www.w3.org/2000/svg" width="100.101" height="100.101" viewBox="0 0 100.101 100.101">
  <path id="Trazado_19" data-name="Trazado 19" d="M29.176,35.95c-9.468-2.461-12.513-5.005-12.513-8.967,0-4.546,4.213-7.716,11.261-7.716,7.424,0,10.177,3.545,10.427,8.759H47.57c-.292-7.174-4.671-13.764-13.388-15.891V3H21.669v9.009c-8.091,1.752-14.6,7.007-14.6,15.057,0,9.635,7.966,14.431,19.6,17.226,10.427,2.5,12.513,6.173,12.513,10.052,0,2.878-2.044,7.466-11.261,7.466-8.592,0-11.97-3.837-12.429-8.759H6.32c.5,9.134,7.341,14.264,15.349,15.974v9.051H34.181V69.108c8.133-1.543,14.6-6.256,14.6-14.807C48.779,42.456,38.644,38.411,29.176,35.95Z" transform="translate(20.04 9.513)"/>
  <path id="Trazado_20" data-name="Trazado 20" d="M0,0H100.1V100.1H0Z" fill="none"/>
</svg>
