<svg id="baseline-share-24px" xmlns="http://www.w3.org/2000/svg" width="100.101" height="100.101" viewBox="0 0 100.101 100.101">
  <path id="Trazado_21" data-name="Trazado 21" d="M0,0H100.1V100.1H0Z" fill="none"/>
  <path id="Trazado_22" data-name="Trazado 22" d="M65.563,60.726a12.146,12.146,0,0,0-8.175,3.212L27.65,46.628a13.654,13.654,0,0,0,.375-2.92,13.654,13.654,0,0,0-.375-2.92l29.4-17.142a12.485,12.485,0,1,0-4-9.134,13.654,13.654,0,0,0,.375,2.92l-29.4,17.142a12.513,12.513,0,1,0,0,18.268l29.7,17.351a11.767,11.767,0,0,0-.334,2.711A12.179,12.179,0,1,0,65.563,60.726Z" transform="translate(9.513 6.342)"/>
</svg>
